<svg xmlns="http://www.w3.org/2000/svg" xml:space="preserve" style="fill-rule:evenodd;clip-rule:evenodd;stroke-linejoin:round;stroke-miterlimit:2" viewBox="0 0 122 122"><g transform="matrix(1.00031 0 0 .96825 0 0)"><path d="M0 0h121.962v126H0z" style="fill:none"/><clipPath id="a"><path d="M0 0h121.962v126H0z"/></clipPath><g clip-path="url(#a)"><path d="M4 8h110v97H4z" style="fill:#f7f5f4" transform="matrix(1.15263 .09063 -.07465 1.01326 -6.77 -3.197)"/><path d="M-44-29h162v50H-44z" style="fill:#92dbe7" transform="matrix(2.35728 -.30764 .15403 1.2597 -38.766 14.188)"/><path d="M.634-29H118v50H.711L.634-29Z" style="fill:#ee3582" transform="matrix(2.91964 -.38103 .15744 1.28762 -74.91 149.026)"/><path d="M21.266-29H118v50H21.17l.096-50Z" style="fill:#54cbaf" transform="matrix(-.23918 -1.91502 1.33484 -.17794 -10.691 143.988)"/><path d="M-44-29h162v50H-44z" style="fill:#f2c12d" transform="matrix(-.23905 -1.91393 1.54903 -.2065 165.763 113.715)"/><path d="M-12.342-29h33.608l-.096 50h-33.608l.096-50Z" style="fill:#501a50" transform="matrix(-.23918 -1.91502 1.33484 -.17794 -10.691 143.988)"/><path d="m-11.446 21-.069-50h28.323l.068 50h-28.322Z" style="fill:#1db2a0" transform="matrix(2.35728 -.30764 .15403 1.2597 -38.766 14.188)"/><path d="m61.15 21-.069-50h32.868l.069 50H61.15Z" style="fill:#88a628" transform="matrix(2.35728 -.30764 .15403 1.2597 -38.766 14.188)"/><path d="m67.229 21-.057-50h26.537l.057 50H67.229Z" style="fill:#e02a0b" transform="matrix(2.91964 -.38103 .15744 1.28762 -74.91 149.026)"/><text y="24" style="font-family:&quot;Hellix-Bold&quot;,&quot;Hellix&quot;;font-weight:700;font-size:21.423px;fill:#704d6b" transform="matrix(3.26056 0 0 3.36852 9.293 -.121)">o<tspan x="11.956px 21.705px" y="24px 24px">ss</tspan></text></g></g></svg>
