<svg xmlns="http://www.w3.org/2000/svg" xml:space="preserve" style="fill-rule:evenodd;clip-rule:evenodd;stroke-linejoin:round;stroke-miterlimit:2" viewBox="0 0 122 122"><g transform="matrix(1.00031 0 0 .96825 0 0)"><path d="M0 0h121.962v126H0z" style="fill:none"/><clipPath id="a"><path d="M0 0h121.962v126H0z"/></clipPath><g clip-path="url(#a)"><path d="M4 8h110v97H4z" style="fill:#f7f5f4" transform="matrix(1.15263 .09063 -.07465 1.01326 -6.77 -3.197)"/><path d="M-44-29h162v50H-44z" style="fill:#92dbe7" transform="matrix(2.35728 -.30764 .15403 1.2597 -38.766 14.188)"/><path d="M.634-29H118v50H.711L.634-29Z" style="fill:#ee3582" transform="matrix(2.91964 -.38103 .15744 1.28762 -74.91 149.026)"/><path d="M21.266-29H118v50H21.17l.096-50Z" style="fill:#54cbaf" transform="matrix(-.23918 -1.91502 1.33484 -.17794 -10.691 143.988)"/><path d="M-44-29h162v50H-44z" style="fill:#f2c12d" transform="matrix(-.23905 -1.91393 1.54903 -.2065 165.763 113.715)"/><path d="M-12.342-29h33.608l-.096 50h-33.608l.096-50Z" style="fill:#501a50" transform="matrix(-.23918 -1.91502 1.33484 -.17794 -10.691 143.988)"/><path d="m-11.446 21-.069-50h28.323l.068 50h-28.322Z" style="fill:#1db2a0" transform="matrix(2.35728 -.30764 .15403 1.2597 -38.766 14.188)"/><path d="m61.15 21-.069-50h32.868l.069 50H61.15Z" style="fill:#88a628" transform="matrix(2.35728 -.30764 .15403 1.2597 -38.766 14.188)"/><path d="m67.229 21-.057-50h26.537l.057 50H67.229Z" style="fill:#e02a0b" transform="matrix(2.91964 -.38103 .15744 1.28762 -74.91 149.026)"/><path d="M6.088 13.268c.76 0 1.477.139 2.149.418a5.29 5.29 0 0 1 1.737 1.146 5.314 5.314 0 0 1 1.15 1.746c.283.68.424 1.404.424 2.171 0 1.025-.239 1.956-.716 2.793a5.14 5.14 0 0 1-1.967 1.961c-.833.471-1.759.706-2.777.706-1.555 0-2.856-.519-3.902-1.558C1.14 21.612.617 20.311.617 18.749c0-1.562.523-2.866 1.569-3.912 1.046-1.046 2.347-1.569 3.902-1.569Zm0 2.887c-.718 0-1.316.246-1.794.737-.478.492-.717 1.111-.717 1.857 0 .725.239 1.335.717 1.83.478.496 1.076.743 1.794.743.704 0 1.297-.247 1.778-.743.481-.495.722-1.105.722-1.83 0-.746-.239-1.365-.717-1.857-.477-.491-1.072-.737-1.783-.737ZM17.186 24.209c-1.911 0-3.483-.439-4.717-1.318l.899-2.102c.99.739 2.176 1.108 3.557 1.108.467 0 .842-.08 1.124-.24.283-.16.424-.366.424-.617 0-.216-.107-.396-.319-.539a2.615 2.615 0 0 0-.821-.34 34.213 34.213 0 0 0-1.109-.256 9.866 9.866 0 0 1-1.214-.345 5.412 5.412 0 0 1-1.108-.534 2.41 2.41 0 0 1-.821-.899c-.213-.387-.323-.842-.33-1.365-.014-.991.377-1.821 1.172-2.49.795-.669 1.809-1.004 3.044-1.004 1.666 0 3.002.401 4.006 1.203l-.858 2.186c-.418-.314-.929-.575-1.532-.785a5.316 5.316 0 0 0-1.742-.313c-.384 0-.694.08-.931.24-.237.161-.356.359-.356.596 0 .182.084.34.251.476.168.136.386.246.654.33a58.081 58.081 0 0 0 1.972.575 5.675 5.675 0 0 1 1.977.999c.272.22.493.507.664.863.171.356.26.76.267 1.213 0 .977-.389 1.78-1.166 2.412-.778.631-1.773.946-2.987.946ZM26.935 24.209c-1.911 0-3.483-.439-4.717-1.318l.899-2.102c.99.739 2.176 1.108 3.557 1.108.467 0 .842-.08 1.124-.24.283-.16.424-.366.424-.617 0-.216-.107-.396-.319-.539a2.615 2.615 0 0 0-.821-.34 34.213 34.213 0 0 0-1.109-.256 9.866 9.866 0 0 1-1.214-.345 5.412 5.412 0 0 1-1.108-.534 2.421 2.421 0 0 1-.822-.899c-.212-.387-.322-.842-.329-1.365-.014-.991.377-1.821 1.172-2.49.795-.669 1.809-1.004 3.043-1.004 1.667 0 3.003.401 4.007 1.203l-.858 2.186c-.418-.314-.929-.575-1.532-.785a5.316 5.316 0 0 0-1.742-.313c-.384 0-.694.08-.931.24-.237.161-.356.359-.356.596 0 .182.084.34.251.476.168.136.386.246.654.33a58.081 58.081 0 0 0 1.972.575 5.675 5.675 0 0 1 1.977.999c.272.22.493.507.664.863.171.356.26.76.267 1.213 0 .977-.389 1.78-1.166 2.412-.778.631-1.773.946-2.987.946Z" style="fill:#704d6b;fill-rule:nonzero" transform="matrix(3.26056 0 0 3.36852 9.293 -.121)"/></g></g></svg>
